<?xml version="1.0" standalone="no"?>
<!DOCTYPE svg PUBLIC "-//W3C//DTD SVG 20010904//EN"
 "http://www.w3.org/TR/2001/REC-SVG-20010904/DTD/svg10.dtd">
<svg version="1.0" xmlns="http://www.w3.org/2000/svg"
 width="294.000000pt" height="376.000000pt" viewBox="0 0 294.000000 376.000000"
 preserveAspectRatio="xMidYMid meet">

<g transform="translate(0.000000,376.000000) scale(0.100000,-0.100000)"
fill="#000000" stroke="none">
<path d="M532 3198 c-4 -13 -5 -432 -2 -933 5 -859 6 -910 23 -909 9 1 426 2
927 3 l910 1 0 930 0 930 -925 0 -925 0 -8 -22z m1778 -913 l0 -845 -845 0
c-669 0 -845 3 -846 13 -6 124 -9 1098 -4 1345 l7 332 844 0 844 0 0 -845z"/>
<path d="M972 2278 l3 -653 523 -3 c489 -3 549 0 512 23 -5 3 -57 73 -116 155
-60 86 -110 147 -117 143 -6 -3 -7 -1 -3 6 4 6 -55 98 -143 221 -83 115 -151
213 -151 217 0 5 121 129 268 276 l268 267 -523 0 -523 0 2 -652z m565 -84
c54 -75 116 -162 137 -193 22 -31 79 -110 128 -176 48 -66 88 -126 88 -132 0
-18 -830 -19 -848 -1 -8 8 -12 51 -12 127 l0 114 193 197 c105 109 197 198
204 199 7 0 56 -60 110 -135z"/>
<path d="M1870 937 c-46 -23 -51 -47 -48 -255 l3 -194 29 -25 c26 -22 36 -25
93 -21 49 3 69 9 86 26 21 22 22 29 22 228 l0 206 -28 24 c-22 19 -39 24 -80
24 -29 0 -63 -6 -77 -13z m129 -52 c13 -13 16 -45 16 -190 0 -153 -2 -176 -18
-192 -20 -21 -90 -24 -109 -5 -9 9 -15 60 -18 160 -6 167 0 220 27 240 22 16
80 9 102 -13z"/>
<path d="M880 933 c0 -5 -2 -87 -4 -183 -5 -230 1 -300 25 -300 17 0 19 10 19
110 0 81 3 110 13 110 6 0 37 -49 67 -108 47 -91 59 -107 81 -110 26 -3 26 -1
-42 130 -38 73 -69 138 -69 144 0 5 25 50 56 100 70 110 71 114 45 114 -15 0
-34 -21 -68 -76 -85 -135 -82 -134 -83 -21 0 90 -1 97 -20 97 -11 0 -20 -3
-20 -7z"/>
<path d="M1320 695 l0 -245 25 0 25 0 0 114 0 114 38 6 c20 3 53 2 72 -2 l35
-8 3 -112 c2 -104 4 -112 22 -112 19 0 20 8 20 245 0 237 -1 245 -20 245 -18
0 -20 -8 -22 -107 l-3 -108 -72 -3 -73 -3 0 111 0 110 -25 0 -25 0 0 -245z"/>
</g>
</svg>
